<svg fill="#24292f" viewBox="0 0 20.435547 3.4411073" xmlns="http://www.w3.org/2000/svg">
  <title>GitHub Gist</title>
  <path
    d="m 15.060547,0.12230418 c -0.958517,0 -1.267578,0.72515283 -1.267578,1.62695312 0,0.9018005 0.303584,1.6289062 1.267578,1.6289062 0.449134,0 0.768808,-0.071975 0.982422,-0.171875 V 1.6691792 H 15.080078 V 1.9387104 H 15.75 v 1.0859375 c -0.150625,0.072902 -0.449623,0.091797 -0.693359,0.091797 -0.701088,0 -0.949219,-0.5937809 -0.949219,-1.3632813 0,-0.76950028 0.2493,-1.36718745 0.953125,-1.36718745 0.350544,0 0.564325,0.0622655 0.898437,0.19726563 V 0.30003855 C 15.783713,0.21093838 15.504203,0.12230418 15.060547,0.12230418 Z m 1.623047,0.25585937 c -0.123234,0 -0.210938,0.0921374 -0.210938,0.2109375 a 0.20813547,0.20520028 0 0 0 0.210938,0.2109375 c 0.120503,0 0.214844,-0.0921375 0.214844,-0.2109375 -10e-7,-0.11879997 -0.09161,-0.2109375 -0.214844,-0.2109375 z m 3.089844,0.17382813 -0.296876,0.0839844 V 1.2043354 l -0.425781,0.1191407 v 0.1289062 h 0.425781 v 1.3515625 c 0,0.4131 0.326789,0.5742187 0.685547,0.5742187 0.05204,1e-7 0.142894,-0.00557 0.189453,-0.013672 V 3.1242573 c -0.05203,0.0081 -0.113198,0.00781 -0.167968,0.00781 -0.265646,0 -0.410156,-0.1048281 -0.410156,-0.3613281 V 1.4562885 h 0.662109 V 1.2258198 H 19.773438 Z M 18.119141,1.1867573 c -0.602498,0 -0.800782,0.3233468 -0.800782,0.6230469 0,0.2916001 0.129118,0.5065469 0.748047,0.5605469 0.424476,0.0351 0.484375,0.1715811 0.484375,0.3632812 0,0.1970998 -0.118844,0.3828125 -0.5625,0.3828125 -0.303986,0 -0.509956,-0.051756 -0.638672,-0.097656 v 0.2539063 c 0.136932,0.054 0.433275,0.1054687 0.638672,0.1054687 0.651792,0 0.859375,-0.3236907 0.859375,-0.6503906 0,-0.3456001 -0.145932,-0.5475625 -0.753906,-0.6015625 h -0.0078 c -0.410797,-0.0351 -0.486329,-0.1301062 -0.486329,-0.3164062 0,-0.2079002 0.08919,-0.3613281 0.513672,-0.3613281 0.287554,0 0.454037,0.041703 0.621094,0.095703 V 1.2902729 C 18.54541,1.2092719 18.31906,1.1867573 18.119141,1.1867573 Z m -1.578125,0.03125 v 1.6953125 c 0,0.3375003 0.1585,0.4648437 0.470703,0.4648437 V 3.1379292 c -0.131448,0 -0.181641,-0.043653 -0.181641,-0.1894531 V 1.2180073 Z M 1.4453125,0.0070698 C 0.73031322,0.0070698 0,0.30883689 0,1.7668354 0,3.224834 0.83796945,3.4406636 1.5429688,3.4406635 c 0.3299095,0.00746 0.6551127,-0.079256 0.9375,-0.25 0.011036,-0.00902 0.016888,-0.022914 0.015625,-0.037109 V 1.5246479 C 2.4954534,1.4971858 2.4727786,1.4753831 2.4453125,1.4758198 H 1.3808594 c -0.027466,-4.365e-4 -0.050141,0.021366 -0.050781,0.048828 v 0.5234375 c 6.404e-4,0.027462 0.023315,0.049265 0.050781,0.048828 H 1.796875 v 0.6484376 c -0.1150631,0.027424 -0.2333996,0.0386 -0.3515625,0.033203 -0.3049997,0 -0.73046875,-0.1128291 -0.73046875,-1.0488281 0,-0.9359991 0.44237545,-1.0585938 0.85937505,-1.0585938 C 1.7826795,0.66427 1.9906096,0.6960555 2.1875,0.7648823 2.219425,0.7717963 2.249297,0.7467419 2.248047,0.714101 L 2.3671875,0.2101948 c 3.018e-4,-0.0154387 -0.007,-0.0300407 -0.019531,-0.0390625 -0.28031,-0.13558972 -0.592246,-0.19230536 -0.902344,-0.1640625 z m 4.2578125,0.125 C 5.676419,0.13268879 5.654916,0.1541915 5.654297,0.1808979 v 3.1445313 c -4.365e-4,0.027466 0.021366,0.050141 0.048828,0.050781 h 0.6015625 c 0.027462,-6.404e-4 0.049264,-0.023315 0.048828,-0.050781 v -1.34375 h 0.9375 l -0.00195,1.34375 c -4.445e-4,0.028228 0.022553,0.051226 0.050781,0.050781 h 0.6015624 c 0.028228,4.445e-4 0.051226,-0.022553 0.050781,-0.050781 L 7.9902344,0.18089792 C 7.9896155,0.15419143 7.9681127,0.13268869 7.9414062,0.1320698 H 7.3398438 C 7.3123778,0.13163326 7.2897028,0.1534359 7.2890628,0.1808979 V 1.3430073 H 6.3535156 V 0.18089792 C 6.3528967,0.15419147 6.3313939,0.13268874 6.3046875,0.1320698 Z m 5.0625,0 c -0.02747,-4.3598e-4 -0.05014,0.0213665 -0.05078,0.0488281 v 3.1445313 c -4.44e-4,0.028227 0.02255,0.051225 0.05078,0.050781 h 0.417969 c 0.01824,-5.897e-4 0.03471,-0.011071 0.04297,-0.027344 0.01209,-0.047469 0.02058,-0.095784 0.02539,-0.1445313 0.201976,0.1608253 0.454885,0.2439733 0.712891,0.234375 0.547999,0 0.861328,-0.2780478 0.861328,-1.2480469 0,-0.969999 -0.500844,-1.0957031 -0.839844,-1.0957031 -0.19928,-0.00192 -0.395469,0.049317 -0.56836,0.148438 V 0.18089792 c -6.4e-4,-0.027462 -0.02332,-0.0492647 -0.05078,-0.0488281 z M 3.296875,0.2180073 C 2.7361932,0.09926976 2.6417324,0.98315429 3.2148438,0.98558542 3.4299614,0.9837802 3.6029922,0.80812776 3.6015625,0.5930073 3.5997208,0.41230558 3.4733731,0.25680073 3.296875,0.2180073 Z m 0.875,0.3125 c -0.024,0 -0.035156,0.0102032 -0.035156,0.0332031 v 0.6152344 l -0.3300782,0.080078 c -0.020605,0.0064 -0.034779,0.025301 -0.035156,0.046875 v 0.3867188 c -4.365e-4,0.027466 0.021366,0.050141 0.048828,0.050781 h 0.3164063 v 0.9296875 c 0,0.6919993 0.4825472,0.7597656 0.8105468,0.7597657 0.1212907,-0.00432 0.2414756,-0.024679 0.3574219,-0.060547 0.016936,-0.00751 0.027714,-0.024447 0.027344,-0.042969 l 0.00195,-0.4257812 c 4.445e-4,-0.028228 -0.022553,-0.051226 -0.050781,-0.050781 -0.026,0 -0.093109,0.00977 -0.1621093,0.00977 -0.2209998,0 -0.2968751,-0.1003751 -0.296875,-0.234375 V 1.7433979 h 0.4511718 c 0.028228,4.445e-4 0.051225,-0.022553 0.050781,-0.050781 V 1.2101948 C 5.3266139,1.181968 5.3036174,1.1589703 5.2753906,1.1594135 H 4.8261719 l -0.00195,-0.59570308 c 0,-0.023 -0.011109,-0.0332031 -0.037109,-0.0332031 z M 2.9101562,1.1594135 c -0.028893,0.00317 -0.050771,0.027574 -0.050781,0.056641 v 2.0800778 c 0,0.06 0.036938,0.078125 0.085937,0.078125 h 0.5410156 c 0.06,0 0.074219,-0.028125 0.074219,-0.078125 V 2.6613667 1.2101948 c 4.446e-4,-0.028228 -0.022553,-0.051226 -0.050781,-0.050781 z m 6.8164063,0.0039 c -0.027462,6.404e-4 -0.049264,0.023315 -0.048828,0.050781 v 1.5429687 c -0.109214,0.071263 -0.2367799,0.1092618 -0.3671875,0.109375 -0.2149998,0 -0.2734375,-0.096641 -0.2734375,-0.3066406 v -1.34375 C 9.0375443,1.188586 9.015742,1.1659132 8.9882812,1.1652729 H 8.3847656 c -0.028228,-4.445e-4 -0.051225,0.022553 -0.050781,0.050781 v 1.4453125 c 0,0.6259993 0.3481255,0.7792968 0.828125,0.7792968 0.2515324,-0.00714 0.4964742,-0.082041 0.7089842,-0.2167965 0.00566,0.042687 0.013484,0.085059 0.023437,0.1269531 0.00857,0.015985 0.024857,0.026347 0.042969,0.027344 l 0.3847662,-0.00195 c 0.02823,4.439e-4 0.05122,-0.022554 0.05078,-0.050781 V 1.2141011 c 4.37e-4,-0.027467 -0.02137,-0.050142 -0.04883,-0.050781 h -0.002 z m 2.0644535,0.50391 c 0.183654,0.00671 0.34375,0.1125473 0.34375,0.5605468 0,0.5399995 -0.09381,0.6466719 -0.382813,0.6386719 v -0.00195 c -0.1225,-0.00291 -0.242204,-0.037207 -0.347656,-0.099613 V 1.7687885 c 0.09491,-0.054105 0.199966,-0.088017 0.308594,-0.099609 0.02687,-0.00238 0.05189,-0.00291 0.07813,-0.00195 z"
  />
</svg>
